<?xml version="1.0" encoding="UTF-8"?>
<!-- Generator: Adobe Illustrator 21.1.0, SVG Export Plug-In . SVG Version: 6.00 Build 0)  -->
<svg version="1.1" id="Camada_1" xmlns="http://www.w3.org/2000/svg" xmlns:xlink="http://www.w3.org/1999/xlink" x="0px" y="0px" viewBox="0 0 330 330" style="enable-background:new 0 0 330 330;" xml:space="preserve">
<style type="text/css">
	.st0{fill:none;stroke:#D13939;stroke-width:15;stroke-linecap:round;stroke-linejoin:round;stroke-miterlimit:10;}
	.st1{fill:none;stroke:#29B6F6;stroke-width:15;stroke-linecap:round;stroke-linejoin:round;stroke-miterlimit:10;}
	.st2{fill:none;stroke:#29B6F6;stroke-width:9;stroke-miterlimit:10;}
</style>
<path class="st0" d="M1279.5,670.4"/>
<g>
	<path class="st1" d="M165,179.2c105,0,105,64.1,105,100.9"/>
	<path class="st1" d="M165,179.2c-105,0-105,64.1-105,100.9"/>
	<path class="st1" d="M109.9,127.7c0,28.4,24.7,51.5,55.1,51.5s55.1-23.1,55.1-51.5v-26.3c0-28.4-24.7-51.5-55.1-51.5   s-55.1,23.1-55.1,51.5V127.7z"/>
	<path class="st2" d="M185.5,256.3h-17.6c-1.4,0-2.5-1.1-2.5-2.4v-15c0-1.4,1.1-2.5,2.5-2.5h17.6c1.4,0,2.3-1.1,2.3-2.5v-17.5   c0-1.4,1.3-2.5,2.7-2.5h15c1.4,0,2.3,1.1,2.3,2.5v17.5c0,1.4,1.3,2.4,2.7,2.4h17c1.4,0,2.7,1.2,2.7,2.5v15c0,1.4-1.3,2.4-2.7,2.4   h-16.9c-1.4,0-2.9,1.2-2.9,2.6v17.4c0,1.4-0.7,2.4-2.1,2.4h-15.1c-1.4,0-2.7-1-2.7-2.4v-17.4C187.8,257.5,186.9,256.3,185.5,256.3   L185.5,256.3z"/>
</g>
</svg>